<svg width="11312" height="2062" viewBox="0 0 11312 2062" fill="none" xmlns="http://www.w3.org/2000/svg">
<g filter="url(#filter0_d_2120_208)">
<path d="M1418.32 799.949C1528.17 902.129 1597.14 1047.74 1597.14 1208.67C1597.14 1517.76 1346.8 1768.1 1037.7 1768.1H838.454V1510.1H583.005V1382.37H1037.7C1132.22 1382.37 1211.41 1305.74 1211.41 1208.67C1211.41 1111.6 1132.22 1032.41 1037.7 1032.41H473.162V1614.83H733.72V1837.07H89.9873V158.771H350.546V649.234H1001.94C1058.14 649.234 1106.68 600.699 1106.68 544.5C1106.68 485.746 1058.14 439.765 1001.94 439.765H577.896V544.5H455.28V54.0368H1001.94C1272.72 54.0368 1492.4 273.723 1492.4 544.5C1492.4 636.462 1464.31 725.869 1418.32 799.949ZM3069.45 51.4821H3493.49L2739.92 1686.36L2665.84 1525.43L2959.6 884.248L2821.66 585.372L3069.45 51.4821ZM2821.66 920.01L2525.34 1561.19L2599.42 1722.12L2527.89 1883.06L1702.79 84.6906H2124.28L2527.89 960.882L2681.16 621.135L2821.66 920.01ZM4014.69 1231.66V1451.35H4901.1V1834.52H3631.51V884.248H3741.36V1109.04H4093.88V1231.66H4014.69ZM5005.83 434.656H4119.42V741.196H5003.28L4855.12 1121.82L4852.56 1126.92H4198.61V1004.31H3848.65V779.513H3736.25V51.4821H5005.83V434.656ZM6152.32 891.911C6384.78 891.911 6573.81 1078.39 6573.81 1305.74H6693.88C6693.88 1599.51 6451.2 1837.07 6152.32 1837.07H5311.89V1459.01H6152.32C6239.18 1459.01 6310.7 1390.04 6310.7 1305.74C6310.7 1218.89 6239.18 1149.92 6152.32 1149.92H5738.49C5439.62 1149.92 5196.94 912.347 5196.94 618.58H5447.28C5454.95 769.295 5654.2 891.911 5794.69 891.911H6152.32ZM5822.79 810.167C5666.97 810.167 5541.8 684.997 5541.8 534.282H5281.24C5281.24 240.515 5523.92 0.392299 5822.79 0.392299H6767.96L6389.89 378.458H5822.79C5735.94 378.458 5664.41 449.983 5664.41 534.282C5664.41 618.58 5735.94 690.106 5822.79 690.106H6236.62C6354.13 690.106 6492.07 748.859 6596.8 845.93C6704.09 943.001 6780.73 1075.83 6780.73 1221.44H6665.78C6653 1001.75 6428.21 810.167 6236.62 810.167H5822.79ZM7686.9 278.832V851.039H7822.28V1824.3H7436.56V531.727H6884.78V145.998H7265.4V278.832H7686.9ZM7370.14 41.2643H8481.34L8328.07 424.438H7927.02V746.305H7791.63V174.098H7370.14V41.2643ZM8718.01 1837.07H8521.32V1637.82H8718.01V1837.07ZM10353.8 1384.93H10172.4L9211.93 33.6008H9393.3L9748.37 534.282L10103.4 36.1552H10576L9983.39 866.366L10353.8 1384.93ZM10080.5 1471.78H10259.3L10519.8 1839.63H10047.2L9653.86 1287.86L9263.02 1839.63H8790.44L9418.84 955.773L8838.97 140.89H9130.19L10080.5 1471.78ZM10838.8 54.0368H11222V858.703H11117.2V368.24H10838.8V54.0368ZM11012.5 472.974V963.437H11117.2V1837.07L10734.1 1668.48V472.974H11012.5Z" fill="white"/>
</g>
<defs>
<filter id="filter0_d_2120_208" x="0.818024" y="0.390625" width="11310.3" height="2061" filterUnits="userSpaceOnUse" color-interpolation-filters="sRGB">
<feFlood flood-opacity="0" result="BackgroundImageFix"/>
<feColorMatrix in="SourceAlpha" type="matrix" values="0 0 0 0 0 0 0 0 0 0 0 0 0 0 0 0 0 0 127 0" result="hardAlpha"/>
<feOffset dy="89.1664"/>
<feGaussianBlur stdDeviation="44.5832"/>
<feComposite in2="hardAlpha" operator="out"/>
<feColorMatrix type="matrix" values="0 0 0 0 0 0 0 0 0 0 0 0 0 0 0 0 0 0 0.25 0"/>
<feBlend mode="normal" in2="BackgroundImageFix" result="effect1_dropShadow_2120_208"/>
<feBlend mode="normal" in="SourceGraphic" in2="effect1_dropShadow_2120_208" result="shape"/>
</filter>
</defs>
</svg>
