<svg id="visual" viewBox="0 0 900 600" width="900" height="600" xmlns="http://www.w3.org/2000/svg"
    xmlns:xlink="http://www.w3.org/1999/xlink" version="1.1">
    <g stroke-width="1" stroke-linejoin="bevel">
        <path d="M479 309L552.5 288L550.5 220Z" fill="#15384f" stroke="#15384f"></path>
        <path d="M550.5 220L466 206L479 309Z" fill="#1d4e6b" stroke="#1d4e6b"></path>
        <path d="M466 206L358.5 278L479 309Z" fill="#205a7a" stroke="#205a7a"></path>
        <path d="M550.5 220L476 102L466 206Z" fill="#15384f" stroke="#15384f"></path>
        <path d="M466 206L356.5 199L358.5 278Z" fill="#0c2435" stroke="#0c2435"></path>
        <path d="M447 402L543.5 407L479 309Z" fill="#0c2435" stroke="#0c2435"></path>
        <path d="M479 309L543.5 407L552.5 288Z" fill="#15384f" stroke="#15384f"></path>
        <path d="M350.5 380L447 402L479 309Z" fill="#15384f" stroke="#15384f"></path>
        <path d="M476 102L356.5 199L466 206Z" fill="#246688" stroke="#246688"></path>
        <path d="M649 171L594.5 122L550.5 220Z" fill="#1d4e6b" stroke="#1d4e6b"></path>
        <path d="M550.5 220L594.5 122L476 102Z" fill="#277297" stroke="#277297"></path>
        <path d="M652 325L550.5 220L552.5 288Z" fill="#297ea6" stroke="#297ea6"></path>
        <path d="M543.5 407L652 325L552.5 288Z" fill="#205a7a" stroke="#205a7a"></path>
        <path d="M652 325L649 171L550.5 220Z" fill="#081a28" stroke="#081a28"></path>
        <path d="M253 418L350.5 380L205 329Z" fill="#112e42" stroke="#112e42"></path>
        <path d="M358.5 278L350.5 380L479 309Z" fill="#00101c" stroke="#00101c"></path>
        <path d="M543.5 407L654 385L652 325Z" fill="#205a7a" stroke="#205a7a"></path>
        <path d="M811.5 201L677 129L649 171Z" fill="#0c2435" stroke="#0c2435"></path>
        <path d="M476 102L335.5 128L356.5 199Z" fill="#205a7a" stroke="#205a7a"></path>
        <path d="M356.5 199L253 224L358.5 278Z" fill="#297ea6" stroke="#297ea6"></path>
        <path d="M764.5 278L649 171L652 325Z" fill="#0c2435" stroke="#0c2435"></path>
        <path d="M649 171L677 129L594.5 122Z" fill="#277297" stroke="#277297"></path>
        <path d="M594.5 122L532.5 0L476 102Z" fill="#205a7a" stroke="#205a7a"></path>
        <path d="M432 488L577.5 477L543.5 407Z" fill="#1d4e6b" stroke="#1d4e6b"></path>
        <path d="M543.5 407L577.5 477L654 385Z" fill="#112e42" stroke="#112e42"></path>
        <path d="M432 488L543.5 407L447 402Z" fill="#1d4e6b" stroke="#1d4e6b"></path>
        <path d="M350.5 380L432 488L447 402Z" fill="#205a7a" stroke="#205a7a"></path>
        <path d="M335.5 128L253 224L356.5 199Z" fill="#081a28" stroke="#081a28"></path>
        <path d="M660 0L532.5 0L594.5 122Z" fill="#19435d" stroke="#19435d"></path>
        <path d="M476 102L420 0L335.5 128Z" fill="#0c2435" stroke="#0c2435"></path>
        <path d="M807.5 417L764.5 278L654 385Z" fill="#15384f" stroke="#15384f"></path>
        <path d="M654 385L764.5 278L652 325Z" fill="#0c2435" stroke="#0c2435"></path>
        <path d="M532.5 0L420 0L476 102Z" fill="#081a28" stroke="#081a28"></path>
        <path d="M335.5 128L241 106L253 224Z" fill="#15384f" stroke="#15384f"></path>
        <path d="M205 329L350.5 380L358.5 278Z" fill="#112e42" stroke="#112e42"></path>
        <path d="M350.5 380L335.5 528L432 488Z" fill="#00101c" stroke="#00101c"></path>
        <path d="M677 129L660 0L594.5 122Z" fill="#00101c" stroke="#00101c"></path>
        <path d="M805.5 85L660 0L677 129Z" fill="#1d4e6b" stroke="#1d4e6b"></path>
        <path d="M313.5 0L241 106L335.5 128Z" fill="#19435d" stroke="#19435d"></path>
        <path d="M253 224L205 329L358.5 278Z" fill="#277297" stroke="#277297"></path>
        <path d="M106.5 268L205 329L253 224Z" fill="#15384f" stroke="#15384f"></path>
        <path d="M764.5 278L811.5 201L649 171Z" fill="#00101c" stroke="#00101c"></path>
        <path d="M420 0L313.5 0L335.5 128Z" fill="#205a7a" stroke="#205a7a"></path>
        <path d="M253 418L335.5 528L350.5 380Z" fill="#081a28" stroke="#081a28"></path>
        <path d="M673 600L707 519L577.5 477Z" fill="#00101c" stroke="#00101c"></path>
        <path d="M457 600L577.5 477L432 488Z" fill="#205a7a" stroke="#205a7a"></path>
        <path d="M577.5 477L707 519L654 385Z" fill="#297ea6" stroke="#297ea6"></path>
        <path d="M900 310L900 216L811.5 201Z" fill="#081a28" stroke="#081a28"></path>
        <path d="M101.5 415L242 470L253 418Z" fill="#205a7a" stroke="#205a7a"></path>
        <path d="M253 418L242 470L335.5 528Z" fill="#205a7a" stroke="#205a7a"></path>
        <path d="M707 519L807.5 417L654 385Z" fill="#205a7a" stroke="#205a7a"></path>
        <path d="M811.5 201L805.5 85L677 129Z" fill="#081a28" stroke="#081a28"></path>
        <path d="M351.5 600L457 600L432 488Z" fill="#19435d" stroke="#19435d"></path>
        <path d="M457 600L584.5 600L577.5 477Z" fill="#205a7a" stroke="#205a7a"></path>
        <path d="M313.5 0L238 0L241 106Z" fill="#0c2435" stroke="#0c2435"></path>
        <path d="M241 106L121.5 184L253 224Z" fill="#112e42" stroke="#112e42"></path>
        <path d="M335.5 528L351.5 600L432 488Z" fill="#00101c" stroke="#00101c"></path>
        <path d="M193 600L351.5 600L335.5 528Z" fill="#112e42" stroke="#112e42"></path>
        <path d="M707 519L805.5 488L807.5 417Z" fill="#15384f" stroke="#15384f"></path>
        <path d="M807.5 600L805.5 488L707 519Z" fill="#112e42" stroke="#112e42"></path>
        <path d="M584.5 600L673 600L577.5 477Z" fill="#0c2435" stroke="#0c2435"></path>
        <path d="M95.5 106L121.5 184L241 106Z" fill="#246688" stroke="#246688"></path>
        <path d="M205 329L101.5 415L253 418Z" fill="#1d4e6b" stroke="#1d4e6b"></path>
        <path d="M121.5 184L106.5 268L253 224Z" fill="#15384f" stroke="#15384f"></path>
        <path d="M900 310L811.5 201L764.5 278Z" fill="#1d4e6b" stroke="#1d4e6b"></path>
        <path d="M811.5 201L900 98L805.5 85Z" fill="#19435d" stroke="#19435d"></path>
        <path d="M900 310L764.5 278L807.5 417Z" fill="#081a28" stroke="#081a28"></path>
        <path d="M900 390L900 310L807.5 417Z" fill="#00101c" stroke="#00101c"></path>
        <path d="M900 0L813.5 0L805.5 85Z" fill="#00101c" stroke="#00101c"></path>
        <path d="M805.5 85L813.5 0L660 0Z" fill="#205a7a" stroke="#205a7a"></path>
        <path d="M900 469L900 390L807.5 417Z" fill="#081a28" stroke="#081a28"></path>
        <path d="M900 216L900 98L811.5 201Z" fill="#19435d" stroke="#19435d"></path>
        <path d="M106.5 268L101.5 415L205 329Z" fill="#1d4e6b" stroke="#1d4e6b"></path>
        <path d="M242 470L193 600L335.5 528Z" fill="#0c2435" stroke="#0c2435"></path>
        <path d="M238 0L95.5 106L241 106Z" fill="#0c2435" stroke="#0c2435"></path>
        <path d="M0 202L0 273L106.5 268Z" fill="#0c2435" stroke="#0c2435"></path>
        <path d="M106.5 268L0 273L101.5 415Z" fill="#081a28" stroke="#081a28"></path>
        <path d="M900 600L900 469L805.5 488Z" fill="#246688" stroke="#246688"></path>
        <path d="M805.5 488L900 469L807.5 417Z" fill="#205a7a" stroke="#205a7a"></path>
        <path d="M673 600L807.5 600L707 519Z" fill="#277297" stroke="#277297"></path>
        <path d="M92.5 532L193 600L242 470Z" fill="#0c2435" stroke="#0c2435"></path>
        <path d="M900 98L900 0L805.5 85Z" fill="#00101c" stroke="#00101c"></path>
        <path d="M238 0L90.5 0L95.5 106Z" fill="#205a7a" stroke="#205a7a"></path>
        <path d="M0 428L92.5 532L101.5 415Z" fill="#112e42" stroke="#112e42"></path>
        <path d="M106.5 268L121.5 184L0 202Z" fill="#0c2435" stroke="#0c2435"></path>
        <path d="M101.5 415L92.5 532L242 470Z" fill="#277297" stroke="#277297"></path>
        <path d="M0 202L121.5 184L95.5 106Z" fill="#19435d" stroke="#19435d"></path>
        <path d="M0 104L0 202L95.5 106Z" fill="#1d4e6b" stroke="#1d4e6b"></path>
        <path d="M92.5 532L120.5 600L193 600Z" fill="#246688" stroke="#246688"></path>
        <path d="M807.5 600L900 600L805.5 488Z" fill="#0c2435" stroke="#0c2435"></path>
        <path d="M90.5 0L0 104L95.5 106Z" fill="#00101c" stroke="#00101c"></path>
        <path d="M0 273L0 428L101.5 415Z" fill="#205a7a" stroke="#205a7a"></path>
        <path d="M92.5 532L0 600L120.5 600Z" fill="#0c2435" stroke="#0c2435"></path>
        <path d="M90.5 0L0 0L0 104Z" fill="#297ea6" stroke="#297ea6"></path>
        <path d="M0 428L0 528L92.5 532Z" fill="#297ea6" stroke="#297ea6"></path>
        <path d="M0 528L0 600L92.5 532Z" fill="#19435d" stroke="#19435d"></path>
    </g>
</svg>