<svg width="31383" height="2783" viewBox="0 0 31383 2783" fill="none" xmlns="http://www.w3.org/2000/svg">
<path d="M3323.26 168.428V2771L2759.44 2528.29V1527.59L1740.06 2546.96L1329.33 2136.23V1904.72L153.13 728.523V164.695L1740.06 1751.63L3323.26 168.428ZM0.0377237 2771V829.34L1176.24 2005.54V2237.04L560.132 1624.67V2771H0.0377237ZM4329.86 1886.05V2207.17H5625.54V2767.27H3769.76V1378.23H3930.32V1706.82H4445.61V1886.05H4329.86ZM5778.64 721.055H4482.95V1169.13H5774.9L5558.33 1725.49L5554.6 1732.96H4598.7V1553.73H4087.15V1225.14H3922.86V160.96H5778.64V721.055ZM6692.76 1886.05V2207.17H7988.44V2767.27H6132.66V1378.23H6293.22V1706.82H6808.51V1886.05H6692.76ZM8141.53 721.055H6845.85V1169.13H8137.8L7921.23 1725.49L7917.5 1732.96H6961.6V1553.73H6450.05V1225.14H6285.75V160.96H8141.53V721.055ZM9529.87 493.283V1329.69H9727.77V2752.33H9163.94V862.945H8357.4V299.117H8913.76V493.283H9529.87ZM9066.86 146.025H10691.1L10467.1 706.119H9880.86V1176.6H9682.96V340.191H9066.86V146.025ZM13139.8 493.283V1329.69H13337.7V2752.33H12773.9V862.945H11967.4V299.117H12523.7V493.283H13139.8ZM12676.8 146.025H14301.1L14077.1 706.119H13490.8V1176.6H13292.9V340.191H12676.8V146.025ZM15393.8 1247.54V1464.11H16122V1811.37H15110.1V2782.2H14550V276.713H15110.1V1247.54H15393.8ZM16838.9 172.162H16842.6V2778.47L16282.5 2535.76V2532.03L16275.1 1311.02H15546.9V1094.45H16282.5V172.162H16838.9ZM17850.9 1886.05V2207.17H19146.6V2767.27H17290.8V1378.23H17451.3V1706.82H17966.6V1886.05H17850.9ZM19299.7 721.055H18004V1169.13H19295.9L19079.4 1725.49L19075.6 1732.96H18119.7V1553.73H17608.2V1225.14H17443.9V160.96H19299.7V721.055ZM21909.6 493.283V1329.69H22107.5V2752.33H21543.6V862.945H20737.1V299.117H21293.5V493.283H21909.6ZM21446.5 146.025H23070.8L22846.8 706.119H22260.5V1176.6H22062.6V340.191H21446.5V146.025ZM23823.8 1886.05V2207.17H25119.4V2767.27H23263.7V1378.23H23424.2V1706.82H23939.5V1886.05H23823.8ZM25272.5 721.055H23976.9V1169.13H25268.8L25052.2 1725.49L25048.5 1732.96H24092.6V1553.73H23581.1V1225.14H23416.8V160.96H25272.5V721.055ZM26806.5 1344.63L26660.9 1658.28H26044.8L26806.5 0.400098L27754.9 2065.28H26575L26657.1 1886.05H27056.7L26806.5 1344.63ZM27601.8 2218.37L27758.7 2554.43L27239.6 2778.47L27161.2 2602.97H26145.6L26063.4 2778.47H25447.3L25887.9 1811.37H26507.8L26321.1 2218.37H27601.8ZM31382.7 168.428V2771L30818.8 2528.29V1527.59L29799.5 2546.96L29388.7 2136.23V1904.72L28212.5 728.523V164.695L29799.5 1751.63L31382.7 168.428ZM28059.4 2771V829.34L29235.6 2005.54V2237.04L28619.5 1624.67V2771H28059.4Z" fill="white"/>
</svg>
